<svg width="24" height="24" viewBox="0 0 24 24" fill="none" xmlns="http://www.w3.org/2000/svg">
<path d="M16.5832 0.295654H6.96447C2.78642 0.295654 0.295654 2.78642 0.295654 6.96448V16.5717C0.295654 20.7612 2.78642 23.252 6.96447 23.252H16.5717C20.7498 23.252 23.2405 20.7612 23.2405 16.5832V6.96448C23.252 2.78642 20.7612 0.295654 16.5832 0.295654ZM10.5686 18.0983C10.2358 18.4312 9.60446 18.7526 9.14533 18.8214L6.3217 19.2232C6.21839 19.2346 6.11509 19.2461 6.01179 19.2461C5.54118 19.2461 5.10501 19.0854 4.7951 18.7755C4.41632 18.3967 4.25563 17.8458 4.34745 17.2374L4.74919 14.4138C4.81806 13.9432 5.12797 13.3234 5.47231 12.9905L10.5916 7.87125C10.6834 8.11229 10.7752 8.35334 10.9015 8.62881C11.0163 8.86985 11.1425 9.12237 11.2803 9.35194C11.3951 9.54707 11.5213 9.73072 11.6246 9.86845C11.7509 10.0636 11.9001 10.2472 11.9919 10.3505C12.0493 10.4309 12.0952 10.4883 12.1182 10.5112C12.4051 10.8556 12.738 11.177 13.025 11.418C13.1053 11.4984 13.1512 11.5443 13.1742 11.5557C13.3463 11.6935 13.5185 11.8312 13.6677 11.9345C13.8514 12.0723 14.035 12.1985 14.2302 12.3018C14.4597 12.4396 14.7122 12.5658 14.9648 12.6921C15.2288 12.8069 15.4698 12.9102 15.7108 12.9905L10.5686 18.0983ZM17.9376 10.7293L16.8816 11.7968C16.8128 11.8657 16.7209 11.9001 16.6291 11.9001C16.5947 11.9001 16.5488 11.9001 16.5258 11.8886C14.1957 11.2229 12.3363 9.36341 11.6705 7.03334C11.6361 6.90708 11.6705 6.76935 11.7624 6.689L12.8298 5.62153C14.5745 3.87685 16.2388 3.91128 17.9491 5.62153C18.8214 6.49387 19.2461 7.33178 19.2461 8.20412C19.2346 9.03055 18.81 9.85698 17.9376 10.7293Z" fill="#FEFEFE"/>
</svg>
