<svg width="345" height="150" viewBox="0 0 345 150" fill="none" xmlns="http://www.w3.org/2000/svg">
<path d="M84.112 60.1001H72.6307V50.1163H106.575V60.1001H95.0941V120.002H84.112V60.1001ZM111.892 50.1163H141.844V60.1001H122.875V78.57H137.95V88.5537H122.875V110.019H141.844V120.002H111.892V50.1163ZM156.648 50.1163H171.523L182.905 120.002H171.923L169.926 106.125V106.325H157.446L155.45 120.002H145.266L156.648 50.1163ZM168.628 96.8402L163.736 62.2965H163.536L158.744 96.8402H168.628ZM188.233 50.1163H203.907L210.896 100.135H211.096L218.084 50.1163H233.759V120.002H223.376V67.0887H223.176L215.189 120.002H206.004L198.017 67.0887H197.817V120.002H188.233V50.1163ZM240.357 80.0675H262.321V90.0513H240.357V80.0675ZM284.837 121.001C279.513 121.001 275.452 119.503 272.657 116.508C269.862 113.446 268.464 109.087 268.464 103.429V50.1163H279.446V104.228C279.446 106.624 279.912 108.355 280.844 109.42C281.842 110.485 283.24 111.017 285.037 111.017C286.834 111.017 288.198 110.485 289.13 109.42C290.129 108.355 290.628 106.624 290.628 104.228V50.1163H301.21V103.429C301.21 109.087 299.813 113.446 297.017 116.508C294.222 119.503 290.162 121.001 284.837 121.001ZM309.032 50.1163H325.206C330.664 50.1163 334.757 51.5806 337.486 54.5092C340.215 57.4377 341.579 61.7307 341.579 67.3882V74.277C341.579 79.9344 340.215 84.2274 337.486 87.156C334.757 90.0845 330.664 91.5488 325.206 91.5488H320.014V120.002H309.032V50.1163ZM325.206 81.5651C327.003 81.5651 328.334 81.0659 329.199 80.0675C330.131 79.0691 330.597 77.3719 330.597 74.9758V66.6893C330.597 64.2932 330.131 62.596 329.199 61.5976C328.334 60.5992 327.003 60.1001 325.206 60.1001H320.014V81.5651H325.206Z" fill="#FEFEFE"/>
<rect x="290.732" y="20.7161" width="10.715" height="30.0019" fill="#FEFEFE"/>
<path d="M296.089 0L304.44 22.5014H287.737L296.089 0Z" fill="#FEFEFE"/>
<path d="M52.1762 77.4159C51.9679 77.3861 51.7595 77.3861 51.5512 77.4159C46.9378 77.2671 43.2769 73.4871 43.2769 68.8439C43.2769 64.1115 47.1164 60.2422 51.8786 60.2422C56.611 60.2422 60.4803 64.0817 60.4803 68.8439C60.4506 73.4871 56.7896 77.2671 52.1762 77.4159Z" fill="#FEFEFE"/>
<path d="M61.8788 98.0424C58.5452 100.275 53.8723 101.108 49.5565 100.543C50.6876 98.1019 51.2828 95.3934 51.3126 92.5361C51.3126 89.5597 50.6578 86.7321 49.4077 84.2617C53.8128 83.6665 58.4857 84.4998 61.849 86.7321C66.5517 89.8276 66.5517 94.9172 61.8788 98.0424Z" fill="#FEFEFE"/>
<path d="M19.1674 77.4159C19.3758 77.3861 19.5841 77.3861 19.7924 77.4159C24.4058 77.2671 28.0668 73.4871 28.0668 68.8439C28.0668 64.0817 24.2273 60.2422 19.465 60.2422C14.7326 60.2422 10.8931 64.0817 10.8931 68.8439C10.8931 73.4871 14.554 77.2671 19.1674 77.4159Z" fill="#FEFEFE"/>
<path d="M19.4949 92.5366C19.4949 95.4237 20.12 98.162 21.251 100.632C17.0543 101.079 12.679 100.186 9.46451 98.0727C4.76183 94.9475 4.76183 89.8579 9.46451 86.7327C12.6492 84.5897 17.1436 83.7265 21.37 84.2028C20.1497 86.7029 19.4949 89.5305 19.4949 92.5366Z" fill="#FEFEFE"/>
<path d="M36.0744 101.524C35.8363 101.495 35.5684 101.495 35.3006 101.524C29.824 101.346 25.4487 96.8515 25.4487 91.3154C25.4785 85.6603 30.0324 81.0767 35.7172 81.0767C41.3724 81.0767 45.956 85.6603 45.956 91.3154C45.9262 96.8515 41.5807 101.346 36.0744 101.524Z" fill="#FEFEFE"/>
<path d="M26.401 107.686C21.9067 110.692 21.9067 115.632 26.401 118.609C31.5204 122.032 39.9138 122.032 45.0332 118.609C49.5275 115.603 49.5275 110.662 45.0332 107.686C39.9436 104.263 31.5502 104.263 26.401 107.686Z" fill="#FEFEFE"/>
</svg>
